<svg width="60" height="60" viewBox="0 0 60 60" fill="none" xmlns="http://www.w3.org/2000/svg">
<mask id="mask0_187_317" style="mask-type:alpha" maskUnits="userSpaceOnUse" x="0" y="0" width="60" height="60">
<rect width="60" height="60" fill="#D9D9D9"/>
</mask>
<g mask="url(#mask0_187_317)">
<path d="M30 55C25.5833 55 21.9792 54.3021 19.1875 52.9062C16.3958 51.5104 15 49.7083 15 47.5C15 46.5 15.3021 45.5729 15.9063 44.7188C16.5104 43.8646 17.3542 43.125 18.4375 42.5L22.375 46.1875C22 46.3542 21.5938 46.5417 21.1562 46.75C20.7188 46.9583 20.375 47.2083 20.125 47.5C20.6667 48.1667 21.9167 48.75 23.875 49.25C25.8333 49.75 27.875 50 30 50C32.125 50 34.1771 49.75 36.1563 49.25C38.1354 48.75 39.3958 48.1667 39.9375 47.5C39.6458 47.1667 39.2708 46.8958 38.8125 46.6875C38.3542 46.4792 37.9167 46.2917 37.5 46.125L41.375 42.375C42.5417 43.0417 43.4375 43.8021 44.0625 44.6562C44.6875 45.5104 45 46.4583 45 47.5C45 49.7083 43.6042 51.5104 40.8125 52.9062C38.0208 54.3021 34.4167 55 30 55ZM30 47.5C24.125 43.1667 19.7396 38.9583 16.8438 34.875C13.9479 30.7917 12.5 26.7917 12.5 22.875C12.5 19.9167 13.0312 17.3229 14.0938 15.0938C15.1562 12.8646 16.5208 11 18.1875 9.5C19.8542 8 21.7292 6.875 23.8125 6.125C25.8958 5.375 27.9583 5 30 5C32.0417 5 34.1042 5.375 36.1875 6.125C38.2708 6.875 40.1458 8 41.8125 9.5C43.4792 11 44.8438 12.8646 45.9062 15.0938C46.9688 17.3229 47.5 19.9167 47.5 22.875C47.5 26.7917 46.0521 30.7917 43.1562 34.875C40.2604 38.9583 35.875 43.1667 30 47.5ZM30 27.5C31.375 27.5 32.5521 27.0104 33.5312 26.0312C34.5104 25.0521 35 23.875 35 22.5C35 21.125 34.5104 19.9479 33.5312 18.9688C32.5521 17.9896 31.375 17.5 30 17.5C28.625 17.5 27.4479 17.9896 26.4688 18.9688C25.4896 19.9479 25 21.125 25 22.5C25 23.875 25.4896 25.0521 26.4688 26.0312C27.4479 27.0104 28.625 27.5 30 27.5Z" fill="#FFE401"/>
</g>
</svg>
