<svg width="60" height="60" viewBox="0 0 60 60" fill="none" xmlns="http://www.w3.org/2000/svg">
<mask id="mask0_187_310" style="mask-type:alpha" maskUnits="userSpaceOnUse" x="0" y="0" width="60" height="60">
<rect width="60" height="60" fill="#D9D9D9"/>
</mask>
<g mask="url(#mask0_187_310)">
<path d="M17.5 37.5C19.5833 37.5 21.3542 36.7708 22.8125 35.3125C24.2708 33.8542 25 32.0833 25 30C25 27.9167 24.2708 26.1458 22.8125 24.6875C21.3542 23.2292 19.5833 22.5 17.5 22.5C15.4167 22.5 13.6458 23.2292 12.1875 24.6875C10.7292 26.1458 10 27.9167 10 30C10 32.0833 10.7292 33.8542 12.1875 35.3125C13.6458 36.7708 15.4167 37.5 17.5 37.5ZM17.5 45C13.3333 45 9.79167 43.5417 6.875 40.625C3.95833 37.7083 2.5 34.1667 2.5 30C2.5 25.8333 3.95833 22.2917 6.875 19.375C9.79167 16.4583 13.3333 15 17.5 15C20.875 15 23.8229 15.9583 26.3438 17.875C28.8646 19.7917 30.625 22.1667 31.625 25H52.5625L57.5 29.9375L48.75 39.9375L42.5 35L37.5 40L32.5 35H31.625C30.5833 38 28.7708 40.4167 26.1875 42.25C23.6042 44.0833 20.7083 45 17.5 45Z" fill="#FFE401"/>
</g>
</svg>
