<svg width="60" height="60" viewBox="0 0 60 60" fill="none" xmlns="http://www.w3.org/2000/svg">
<mask id="mask0_187_296" style="mask-type:alpha" maskUnits="userSpaceOnUse" x="0" y="0" width="60" height="60">
<rect width="60" height="60" fill="#D9D9D9"/>
</mask>
<g mask="url(#mask0_187_296)">
<path d="M22.5 52.4999V39.9999C19.9167 39.7915 17.3854 39.4999 14.9062 39.1249C12.4271 38.7499 9.95833 38.2082 7.5 37.4999L8.75 32.4999C12.2083 33.4582 15.7083 34.1145 19.25 34.4686C22.7917 34.8228 26.375 34.9999 30 34.9999C33.5833 34.9999 37.1458 34.8228 40.6875 34.4686C44.2292 34.1145 47.75 33.4582 51.25 32.4999L52.5 37.4999C50 38.2082 47.5104 38.7499 45.0312 39.1249C42.5521 39.4999 40.0417 39.7915 37.5 39.9999V52.4999H22.5ZM30 32.4999C28.5833 32.4999 27.3958 32.0207 26.4375 31.0624C25.4792 30.104 25 28.9165 25 27.4999C25 26.1249 25.4792 24.9478 26.4375 23.9686C27.3958 22.9895 28.5833 22.4999 30 22.4999C31.375 22.4999 32.5521 22.9895 33.5312 23.9686C34.5104 24.9478 35 26.1249 35 27.4999C35 28.9165 34.5104 30.104 33.5312 31.0624C32.5521 32.0207 31.375 32.4999 30 32.4999ZM11.25 24.9999C10.1667 24.9999 9.27083 24.6457 8.5625 23.9374C7.85417 23.229 7.5 22.3332 7.5 21.2499C7.5 20.2082 7.85417 19.3228 8.5625 18.5936C9.27083 17.8645 10.1667 17.4999 11.25 17.4999C12.2917 17.4999 13.1771 17.8645 13.9062 18.5936C14.6354 19.3228 15 20.2082 15 21.2499C15 22.3332 14.6354 23.229 13.9062 23.9374C13.1771 24.6457 12.2917 24.9999 11.25 24.9999ZM48.75 24.9999C47.6667 24.9999 46.7708 24.6457 46.0625 23.9374C45.3542 23.229 45 22.3332 45 21.2499C45 20.2082 45.3542 19.3228 46.0625 18.5936C46.7708 17.8645 47.6667 17.4999 48.75 17.4999C49.7917 17.4999 50.6771 17.8645 51.4062 18.5936C52.1354 19.3228 52.5 20.2082 52.5 21.2499C52.5 22.3332 52.1354 23.229 51.4062 23.9374C50.6771 24.6457 49.7917 24.9999 48.75 24.9999ZM18.125 15.6249C17.0417 15.6249 16.1458 15.2707 15.4375 14.5624C14.7292 13.854 14.375 12.9582 14.375 11.8749C14.375 10.8332 14.7292 9.94779 15.4375 9.21863C16.1458 8.48946 17.0417 8.12488 18.125 8.12488C19.1667 8.12488 20.0521 8.48946 20.7812 9.21863C21.5104 9.94779 21.875 10.8332 21.875 11.8749C21.875 12.9582 21.5104 13.854 20.7812 14.5624C20.0521 15.2707 19.1667 15.6249 18.125 15.6249ZM41.875 15.6249C40.7917 15.6249 39.8958 15.2707 39.1875 14.5624C38.4792 13.854 38.125 12.9582 38.125 11.8749C38.125 10.8332 38.4792 9.94779 39.1875 9.21863C39.8958 8.48946 40.7917 8.12488 41.875 8.12488C42.9167 8.12488 43.8021 8.48946 44.5312 9.21863C45.2604 9.94779 45.625 10.8332 45.625 11.8749C45.625 12.9582 45.2604 13.854 44.5312 14.5624C43.8021 15.2707 42.9167 15.6249 41.875 15.6249ZM30 12.4999C28.9167 12.4999 28.0208 12.1457 27.3125 11.4374C26.6042 10.729 26.25 9.83321 26.25 8.74988C26.25 7.70821 26.6042 6.82279 27.3125 6.09363C28.0208 5.36446 28.9167 4.99988 30 4.99988C31.0417 4.99988 31.9271 5.36446 32.6562 6.09363C33.3854 6.82279 33.75 7.70821 33.75 8.74988C33.75 9.83321 33.3854 10.729 32.6562 11.4374C31.9271 12.1457 31.0417 12.4999 30 12.4999Z" fill="#FFE401"/>
</g>
</svg>
